<?xml version="1.0" encoding="UTF-8" standalone="no"?>
<!-- Created with Inkscape (http://www.inkscape.org/) -->

<svg
   version="1.1"
   id="svg1"
   width="18.894667"
   height="17.281174"
   viewBox="0 0 18.894667 17.281173"
   sodipodi:docname="ux-revivo-02.pdf"
   inkscape:export-filename="..\Revivo-FrontEnd\src\assets\icon\cancel.svg"
   inkscape:export-xdpi="96"
   inkscape:export-ydpi="96"
   xmlns:inkscape="http://www.inkscape.org/namespaces/inkscape"
   xmlns:sodipodi="http://sodipodi.sourceforge.net/DTD/sodipodi-0.dtd"
   xmlns="http://www.w3.org/2000/svg"
   xmlns:svg="http://www.w3.org/2000/svg">
  <sodipodi:namedview
     id="namedview1"
     pagecolor="#ffffff"
     bordercolor="#000000"
     borderopacity="0.25"
     inkscape:showpageshadow="2"
     inkscape:pageopacity="0.0"
     inkscape:pagecheckerboard="0"
     inkscape:deskcolor="#d1d1d1"
     showguides="true"
     inkscape:zoom="0.49440065"
     inkscape:cx="1291.4627"
     inkscape:cy="2303.7996"
     inkscape:window-width="1920"
     inkscape:window-height="991"
     inkscape:window-x="-9"
     inkscape:window-y="-9"
     inkscape:window-maximized="1"
     inkscape:current-layer="g1"
     inkscape:export-bgcolor="#ffffff00" />
  <defs
     id="defs1">
    <clipPath
       clipPathUnits="userSpaceOnUse"
       id="clipPath1569">
      <path
         d="M 0,0 H 1920 V 3334 H 0 Z"
         id="path1569" />
    </clipPath>
    <clipPath
       clipPathUnits="userSpaceOnUse"
       id="clipPath1570">
      <path
         d="M 0,0 H 1920 V 3334 H 0 Z"
         id="path1570" />
    </clipPath>
  </defs>
  <g
     id="g1"
     inkscape:groupmode="layer"
     inkscape:label="1"
     transform="translate(-747.29931,-1933.6544)">
    <g
       id="g4785">
      <g
         id="g4930">
        <path
           d="m 565.578,1457.512 c -0.344,0 -0.625,0.281 -0.621,0.625 l -0.004,2.129 c 0.004,0.343 0.281,0.621 0.625,0.621 h 4.336 c 0.344,0 0.625,0.281 0.625,0.625 v 1.367 c 0,0.344 0.199,0.426 0.441,0.183 l 3.481,-3.48 c 0.246,-0.246 0.246,-0.641 0,-0.883 l -3.481,-3.484 c -0.242,-0.242 -0.441,-0.16 -0.441,0.183 v 1.489 c 0,0.343 -0.281,0.625 -0.625,0.625 z"
           style="fill:#000070;fill-opacity:1;fill-rule:nonzero;stroke:none"
           transform="scale(1.3333333)"
           clip-path="url(#clipPath1569)"
           id="path3179" />
        <path
           d="m 569.539,1455.934 c 0.344,0 0.625,-0.282 0.625,-0.625 v -2.129 c 0,-0.344 -0.281,-0.625 -0.625,-0.625 h -4.336 c -0.344,0 -0.625,-0.282 -0.625,-0.625 v -1.368 c 0,-0.343 -0.199,-0.425 -0.441,-0.179 l -3.481,3.48 c -0.242,0.242 -0.242,0.641 0,0.883 l 3.481,3.484 c 0.242,0.243 0.441,0.161 0.441,-0.183 v -1.488 c 0,-0.344 0.281,-0.625 0.625,-0.625 z"
           style="fill:#000070;fill-opacity:1;fill-rule:nonzero;stroke:none"
           transform="scale(1.3333333)"
           clip-path="url(#clipPath1570)"
           id="path3180" />
      </g>
    </g>
  </g>
</svg>
