<svg width="17" height="17" viewBox="0 0 17 17" fill="none" xmlns="http://www.w3.org/2000/svg">
<path d="M14.8542 4.13144H11.7657C11.5273 2.69255 10.2744 1.5918 8.76905 1.5918H8.23122C6.72586 1.5918 5.47297 2.69258 5.23461 4.13144H2.14605L1.2251 7.19406C1.56151 8.59712 2.82619 9.64316 4.33069 9.64316H6.54238V8.54363H10.4682V9.64316H12.6108C14.1553 9.64316 15.4472 8.54081 15.7413 7.08153L14.8542 4.13144ZM6.25129 4.13144C6.47418 3.24564 7.27723 2.58779 8.23126 2.58779H8.76908C9.7231 2.58779 10.5262 3.24561 10.749 4.13144H6.25129Z" fill="#000070"/>
<path d="M16.8437 10.7475L16.2003 8.60782L16.2002 8.60742C15.4662 9.82379 14.1319 10.6389 12.6107 10.6389H10.4681V11.7386H6.54221V10.6389H4.33052C2.83618 10.6389 1.5223 9.85221 0.780571 8.67137L0.780405 8.6719L0.156253 10.7475C-0.176741 11.8541 0.0280888 13.0204 0.717319 13.948C1.40688 14.8752 2.46497 15.4071 3.62063 15.4071H13.3794C14.535 15.4071 15.5931 14.8752 16.2827 13.948C16.9719 13.0204 17.1767 11.8541 16.8437 10.7475Z" fill="#000070"/>
<path d="M9.47246 9.53906H7.53857V10.7422H9.47246V9.53906Z" fill="#000070"/>
</svg>
