<?xml version="1.0" encoding="UTF-8" standalone="no"?>
<!-- Created with Inkscape (http://www.inkscape.org/) -->

<svg
   version="1.1"
   id="svg1"
   width="9.8759995"
   height="18.406666"
   viewBox="0 0 9.8759996 18.406665"
   sodipodi:docname="ux-revivo-02.pdf"
   inkscape:export-filename="..\Revivo-FrontEnd\src\assets\icon\cancel.svg"
   inkscape:export-xdpi="96"
   inkscape:export-ydpi="96"
   xmlns:inkscape="http://www.inkscape.org/namespaces/inkscape"
   xmlns:sodipodi="http://sodipodi.sourceforge.net/DTD/sodipodi-0.dtd"
   xmlns="http://www.w3.org/2000/svg"
   xmlns:svg="http://www.w3.org/2000/svg">
  <sodipodi:namedview
     id="namedview1"
     pagecolor="#ffffff"
     bordercolor="#000000"
     borderopacity="0.25"
     inkscape:showpageshadow="2"
     inkscape:pageopacity="0.0"
     inkscape:pagecheckerboard="0"
     inkscape:deskcolor="#d1d1d1"
     showguides="true"
     inkscape:zoom="0.49440065"
     inkscape:cx="1291.4627"
     inkscape:cy="2303.7996"
     inkscape:window-width="1920"
     inkscape:window-height="991"
     inkscape:window-x="-9"
     inkscape:window-y="-9"
     inkscape:window-maximized="1"
     inkscape:current-layer="g1"
     inkscape:export-bgcolor="#ffffff00" />
  <defs
     id="defs1">
    <clipPath
       clipPathUnits="userSpaceOnUse"
       id="clipPath1567">
      <path
         d="M 0,0 H 1920 V 3334 H 0 Z"
         id="path1567" />
    </clipPath>
    <clipPath
       clipPathUnits="userSpaceOnUse"
       id="clipPath1568">
      <path
         d="M 0,0 H 1920 V 3334 H 0 Z"
         id="path1568" />
    </clipPath>
  </defs>
  <g
     id="g1"
     inkscape:groupmode="layer"
     inkscape:label="1"
     transform="translate(-751.80665,-1807.948)">
    <g
       id="g4785">
      <g
         id="g4931"
         style="display:inline">
        <path
           d="m 565.801,1357.016 c 0,-0.235 0.191,-0.422 0.422,-0.422 h 2.672 c 0.23,0 0.421,0.187 0.421,0.422 v 2.523 h -3.515 z m 4.722,2.523 h -0.574 v -2.523 c 0,-0.582 -0.472,-1.055 -1.054,-1.055 h -2.672 c -0.582,0 -1.055,0.473 -1.055,1.055 v 2.523 h -0.574 c -0.406,0 -0.739,0.332 -0.739,0.734 v 1.551 h 7.407 v -1.551 c 0,-0.402 -0.332,-0.734 -0.739,-0.734"
           style="fill:#000070;fill-opacity:1;fill-rule:nonzero;stroke:none"
           transform="scale(1.3333333)"
           clip-path="url(#clipPath1567)"
           id="path3177" />
        <path
           d="m 563.855,1368.25 c 0,0.406 0.333,0.738 0.739,0.738 h 0.574 v 0.657 c 0,0.066 0.055,0.121 0.121,0.121 h 0.602 c 0.066,0 0.121,-0.055 0.121,-0.121 v -0.657 h 3.093 v 0.657 c 0,0.066 0.055,0.121 0.122,0.121 h 0.601 c 0.067,0 0.121,-0.055 0.121,-0.121 v -0.657 h 0.574 c 0.407,0 0.739,-0.332 0.739,-0.738 v -5.816 h -7.407 z"
           style="fill:#000070;fill-opacity:1;fill-rule:nonzero;stroke:none"
           transform="scale(1.3333333)"
           clip-path="url(#clipPath1568)"
           id="path3178"
           inkscape:label="path3178" />
      </g>
    </g>
  </g>
</svg>
