<?xml version="1.0" encoding="UTF-8" standalone="no"?>
<!-- Created with Inkscape (http://www.inkscape.org/) -->

<svg
   version="1.1"
   id="svg1"
   width="18.292"
   height="18.290665"
   viewBox="0 0 18.292 18.290664"
   sodipodi:docname="ux-revivo-02.pdf"
   inkscape:export-filename="..\Revivo-FrontEnd\src\assets\icon\cancel.svg"
   inkscape:export-xdpi="96"
   inkscape:export-ydpi="96"
   xmlns:inkscape="http://www.inkscape.org/namespaces/inkscape"
   xmlns:sodipodi="http://sodipodi.sourceforge.net/DTD/sodipodi-0.dtd"
   xmlns="http://www.w3.org/2000/svg"
   xmlns:svg="http://www.w3.org/2000/svg">
  <sodipodi:namedview
     id="namedview1"
     pagecolor="#ffffff"
     bordercolor="#000000"
     borderopacity="0.25"
     inkscape:showpageshadow="2"
     inkscape:pageopacity="0.0"
     inkscape:pagecheckerboard="0"
     inkscape:deskcolor="#d1d1d1"
     showguides="true"
     inkscape:zoom="0.49440065"
     inkscape:cx="1291.4627"
     inkscape:cy="2303.7996"
     inkscape:window-width="1920"
     inkscape:window-height="991"
     inkscape:window-x="-9"
     inkscape:window-y="-9"
     inkscape:window-maximized="1"
     inkscape:current-layer="g1"
     inkscape:export-bgcolor="#ffffff00" />
  <defs
     id="defs1">
    <clipPath
       clipPathUnits="userSpaceOnUse"
       id="clipPath1580">
      <path
         d="M 0,0 H 1920 V 3334 H 0 Z"
         id="path1580" />
    </clipPath>
    <clipPath
       clipPathUnits="userSpaceOnUse"
       id="clipPath1581">
      <path
         d="M 0,0 H 1920 V 3334 H 0 Z"
         id="path1581" />
    </clipPath>
    <clipPath
       clipPathUnits="userSpaceOnUse"
       id="clipPath1582">
      <path
         d="M 0,0 H 1920 V 3334 H 0 Z"
         id="path1582" />
    </clipPath>
  </defs>
  <g
     id="g1"
     inkscape:groupmode="layer"
     inkscape:label="1"
     transform="translate(-747.59865,-1964.1826)">
    <g
       id="g4785">
      <g
         id="g4927"
         inkscape:label="g4927">
        <path
           d="m 567.559,1473.137 c -3.789,0 -6.86,3.07 -6.86,6.859 0,3.789 3.071,6.859 6.86,6.859 3.789,0 6.859,-3.07 6.859,-6.859 0,-3.789 -3.07,-6.859 -6.859,-6.859 m 0,1.726 c 2.828,0 5.132,2.301 5.132,5.133 0,2.828 -2.304,5.129 -5.132,5.129 -2.829,0 -5.129,-2.301 -5.129,-5.129 0,-2.832 2.3,-5.133 5.129,-5.133"
           style="fill:#000070;fill-opacity:1;fill-rule:nonzero;stroke:none"
           transform="scale(1.3333333)"
           clip-path="url(#clipPath1580)"
           id="path3190" />
        <path
           d="m 568.23,1480.664 1.184,-1.184 c 0,0 0,0 0,0 l 0.774,-0.77 c 0.328,-0.297 0.374,-0.758 0.105,-1.027 l -0.418,-0.422 c -0.27,-0.27 -0.73,-0.219 -1.027,0.109 l -0.774,0.77 c 0,0 0,0 -0.004,0 l -1.179,1.183 -1.188,1.184 c 0,0 0,0 0,0 l -0.773,0.773 c -0.328,0.293 -0.375,0.754 -0.106,1.024 l 0.418,0.421 c 0.27,0.27 0.735,0.219 1.028,-0.109 l 0.773,-0.769 c 0,0 0,0 0.004,0 l 1.183,-1.184 z"
           style="fill:#000070;fill-opacity:1;fill-rule:nonzero;stroke:none"
           transform="scale(1.3333333)"
           clip-path="url(#clipPath1581)"
           id="path3191" />
        <path
           d="m 568.23,1479.324 -1.183,-1.183 h -0.004 l -0.773,-0.77 c -0.293,-0.328 -0.758,-0.379 -1.028,-0.109 l -0.418,0.422 c -0.269,0.269 -0.222,0.73 0.106,1.027 l 0.773,0.77 v 0 l 1.188,1.184 1.179,1.184 h 0.004 l 0.774,0.769 c 0.297,0.328 0.757,0.379 1.027,0.109 l 0.418,-0.421 c 0.269,-0.27 0.223,-0.731 -0.105,-1.024 l -0.774,-0.773 v 0 c 0,0 -0.97041,-0.6683 -1.184,-1.184 -1.3e-4,-3e-4 0,-10e-4 0,-10e-4 z"
           style="fill:#000070;fill-opacity:1;fill-rule:nonzero;stroke:none"
           transform="scale(1.3333333)"
           clip-path="url(#clipPath1582)"
           id="path3192"
           sodipodi:nodetypes="ccccccccccccccccccsc" />
      </g>
    </g>
  </g>
</svg>
