<?xml version="1.0" encoding="UTF-8" standalone="no"?>
<!-- Created with Inkscape (http://www.inkscape.org/) -->

<svg
   version="1.1"
   id="svg1"
   width="9.8759995"
   height="18.405333"
   viewBox="0 0 9.8759995 18.405332"
   sodipodi:docname="ux-revivo-02.pdf"
   inkscape:export-filename="ux-revivo-02.svg"
   inkscape:export-xdpi="96"
   inkscape:export-ydpi="96"
   xmlns:inkscape="http://www.inkscape.org/namespaces/inkscape"
   xmlns:sodipodi="http://sodipodi.sourceforge.net/DTD/sodipodi-0.dtd"
   xmlns="http://www.w3.org/2000/svg"
   xmlns:svg="http://www.w3.org/2000/svg">
  <sodipodi:namedview
     id="namedview1"
     pagecolor="#ffffff"
     bordercolor="#000000"
     borderopacity="0.25"
     inkscape:showpageshadow="2"
     inkscape:pageopacity="0.0"
     inkscape:pagecheckerboard="0"
     inkscape:deskcolor="#d1d1d1"
     showguides="true"
     inkscape:zoom="0.49440065"
     inkscape:cx="1291.4627"
     inkscape:cy="2303.7996"
     inkscape:window-width="1920"
     inkscape:window-height="991"
     inkscape:window-x="-9"
     inkscape:window-y="-9"
     inkscape:window-maximized="1"
     inkscape:current-layer="g1"
     inkscape:export-bgcolor="#ffffff00" />
  <defs
     id="defs1">
    <clipPath
       clipPathUnits="userSpaceOnUse"
       id="clipPath1583">
      <path
         d="M 0,0 H 1920 V 3334 H 0 Z"
         id="path1583" />
    </clipPath>
    <clipPath
       clipPathUnits="userSpaceOnUse"
       id="clipPath1584">
      <path
         d="M 0,0 H 1920 V 3334 H 0 Z"
         id="path1584" />
    </clipPath>
  </defs>
  <g
     id="g1"
     inkscape:groupmode="layer"
     inkscape:label="1"
     transform="translate(-751.81731,-1867.964)">
    <g
       id="g4785">
      <g
         id="g4924">
        <path
           d="m 565.809,1402.027 c 0,-0.234 0.187,-0.422 0.421,-0.422 h 2.668 c 0.235,0 0.422,0.188 0.422,0.422 v 4.93 h -3.511 z m 4.722,4.93 h -0.578 v -4.93 c 0,-0.582 -0.473,-1.054 -1.055,-1.054 h -2.668 c -0.582,0 -1.054,0.472 -1.054,1.054 v 4.93 h -0.578 c -0.403,0 -0.735,0.332 -0.735,0.738 v 1.547 h 7.407 v -1.547 c 0,-0.406 -0.332,-0.738 -0.739,-0.738"
           style="fill:#000070;fill-opacity:1;fill-rule:nonzero;stroke:none"
           transform="scale(1.3333333)"
           clip-path="url(#clipPath1583)"
           id="path3193" />
        <path
           d="m 563.863,1413.266 c 0,0.406 0.332,0.738 0.735,0.738 h 0.578 v 0.652 c 0,0.067 0.054,0.121 0.121,0.121 h 0.601 c 0.067,0 0.118,-0.054 0.118,-0.121 v -0.652 h 3.097 v 0.652 c 0,0.067 0.055,0.121 0.121,0.121 h 0.602 c 0.066,0 0.117,-0.054 0.117,-0.121 v -0.652 h 0.578 c 0.407,0 0.739,-0.332 0.739,-0.738 v -3.414 h -7.407 z"
           style="fill:#000070;fill-opacity:1;fill-rule:nonzero;stroke:none"
           transform="scale(1.3333333)"
           clip-path="url(#clipPath1584)"
           id="path3194" />
      </g>
    </g>
  </g>
</svg>
