<?xml version="1.0" encoding="UTF-8" standalone="no"?>
<!-- Created with Inkscape (http://www.inkscape.org/) -->

<svg
   version="1.1"
   id="svg1"
   width="8.6031847"
   height="18.294075"
   viewBox="0 0 8.6031848 18.294074"
   sodipodi:docname="ux-revivo-02.pdf"
   inkscape:export-filename="..\Revivo-FrontEnd\src\assets\icon\cancel.svg"
   inkscape:export-xdpi="96"
   inkscape:export-ydpi="96"
   xmlns:inkscape="http://www.inkscape.org/namespaces/inkscape"
   xmlns:sodipodi="http://sodipodi.sourceforge.net/DTD/sodipodi-0.dtd"
   xmlns="http://www.w3.org/2000/svg"
   xmlns:svg="http://www.w3.org/2000/svg">
  <sodipodi:namedview
     id="namedview1"
     pagecolor="#ffffff"
     bordercolor="#000000"
     borderopacity="0.25"
     inkscape:showpageshadow="2"
     inkscape:pageopacity="0.0"
     inkscape:pagecheckerboard="0"
     inkscape:deskcolor="#d1d1d1"
     showguides="true"
     inkscape:zoom="0.49440065"
     inkscape:cx="1291.4627"
     inkscape:cy="2303.7996"
     inkscape:window-width="1920"
     inkscape:window-height="991"
     inkscape:window-x="-9"
     inkscape:window-y="-9"
     inkscape:window-maximized="1"
     inkscape:current-layer="g1"
     inkscape:export-bgcolor="#ffffff00" />
  <defs
     id="defs1">
    <clipPath
       clipPathUnits="userSpaceOnUse"
       id="clipPath1629">
      <path
         d="M 0,0 H 1920 V 3334 H 0 Z"
         id="path1629" />
    </clipPath>
    <clipPath
       clipPathUnits="userSpaceOnUse"
       id="clipPath1630">
      <path
         d="M 0,0 H 1920 V 3334 H 0 Z"
         id="path1630" />
    </clipPath>
  </defs>
  <g
     id="g1"
     inkscape:groupmode="layer"
     inkscape:label="1"
     transform="translate(-752.44228,-2026.4925)">
    <g
       id="g4785">
      <g
         id="g4929">
        <path
           d="m 570.094,1519.871 c 0,0 -0.68,0 -1.156,2.524 -0.395,2.089 -0.063,5.363 0.308,5.628 0.367,0.262 0.609,0.368 0.504,1.313 -0.105,0.945 -0.824,3.578 -0.332,3.949 0.488,0.367 0.836,0.578 1.203,-0.422 0.367,-1 0,-11.414 0,-11.414 0,0 -0.031,-1.637 -0.527,-1.578"
           style="fill:#ff0000;fill-opacity:1;fill-rule:nonzero;stroke:none"
           transform="scale(1.3333333)"
           clip-path="url(#clipPath1629)"
           id="path3239" />
        <path
           d="m 566.102,1526.879 c 0.98,-0.828 0.937,-1.789 0.937,-1.789 v -4.668 h -0.391 v 3.926 h -0.351 v -3.926 h -0.434 v 3.926 h -0.351 v -3.926 h -0.438 v 3.926 h -0.347 v -3.926 h -0.395 v 4.668 c 0,0 -0.043,0.961 0.941,1.789 0,0 0.391,-0.516 -0.023,2.433 -0.414,2.946 -0.129,4.083 0.438,4.278 0.566,-0.195 0.851,-1.332 0.437,-4.278 -0.418,-2.949 -0.023,-2.433 -0.023,-2.433"
           style="fill:#ff0000;fill-opacity:1;fill-rule:nonzero;stroke:none"
           transform="scale(1.3333333)"
           clip-path="url(#clipPath1630)"
           id="path3240" />
      </g>
    </g>
  </g>
</svg>
