<?xml version="1.0" encoding="UTF-8" standalone="no"?>
<!-- Created with Inkscape (http://www.inkscape.org/) -->

<svg
   version="1.1"
   id="svg1"
   width="14.425069"
   height="18.291998"
   viewBox="0 0 14.425069 18.291997"
   sodipodi:docname="ux-revivo-02.pdf"
   inkscape:export-filename="..\Revivo-FrontEnd\src\assets\icon\cancel.svg"
   inkscape:export-xdpi="96"
   inkscape:export-ydpi="96"
   xmlns:inkscape="http://www.inkscape.org/namespaces/inkscape"
   xmlns:sodipodi="http://sodipodi.sourceforge.net/DTD/sodipodi-0.dtd"
   xmlns="http://www.w3.org/2000/svg"
   xmlns:svg="http://www.w3.org/2000/svg">
  <sodipodi:namedview
     id="namedview1"
     pagecolor="#ffffff"
     bordercolor="#000000"
     borderopacity="0.25"
     inkscape:showpageshadow="2"
     inkscape:pageopacity="0.0"
     inkscape:pagecheckerboard="0"
     inkscape:deskcolor="#d1d1d1"
     showguides="true"
     inkscape:zoom="0.49440065"
     inkscape:cx="1291.4627"
     inkscape:cy="2303.7996"
     inkscape:window-width="1920"
     inkscape:window-height="991"
     inkscape:window-x="-9"
     inkscape:window-y="-9"
     inkscape:window-maximized="1"
     inkscape:current-layer="g1"
     inkscape:export-bgcolor="#ffffff00" />
  <defs
     id="defs1">
    <clipPath
       clipPathUnits="userSpaceOnUse"
       id="clipPath1626">
      <path
         d="M 0,0 H 1920 V 3334 H 0 Z"
         id="path1626" />
    </clipPath>
    <clipPath
       clipPathUnits="userSpaceOnUse"
       id="clipPath1627">
      <path
         d="M 0,0 H 1920 V 3334 H 0 Z"
         id="path1627" />
    </clipPath>
    <clipPath
       clipPathUnits="userSpaceOnUse"
       id="clipPath1628">
      <path
         d="M 0,0 H 1920 V 3334 H 0 Z"
         id="path1628" />
    </clipPath>
  </defs>
  <g
     id="g1"
     inkscape:groupmode="layer"
     inkscape:label="1"
     transform="translate(-749.53291,-1995.5933)">
    <g
       id="g4785">
      <g
         id="g4928">
        <path
           d="m 570.855,1508.926 h -4.421 c -0.387,0 -0.7,-0.317 -0.7,-0.703 0,-0.383 0.313,-0.7 0.7,-0.7 h 3.871 l 1.285,-5.265 c 0.09,-0.379 0.469,-0.61 0.844,-0.516 0.375,0.09 0.605,0.469 0.515,0.844 l -1.414,5.805 c -0.078,0.312 -0.359,0.535 -0.68,0.535"
           style="fill:#ff0000;fill-opacity:1;fill-rule:nonzero;stroke:none"
           transform="scale(1.3333333)"
           clip-path="url(#clipPath1626)"
           id="path3236" />
        <path
           d="m 563.023,1510.414 c -0.128,0 -0.257,-0.027 -0.382,-0.086 -0.434,-0.215 -0.614,-0.738 -0.403,-1.172 l 1.59,-3.261 c 0.149,-0.301 0.453,-0.493 0.789,-0.493 h 3.703 l 0.492,-2.449 -1.05,0.727 c -0.106,0.07 -0.227,0.121 -0.356,0.14 l -2.386,0.391 c -0.477,0.078 -0.93,-0.246 -1.008,-0.723 -0.074,-0.476 0.246,-0.926 0.726,-1.004 l 2.192,-0.359 2.672,-1.844 c 0.293,-0.203 0.679,-0.207 0.98,-0.011 0.297,0.195 0.445,0.554 0.375,0.902 l -1.062,5.277 c -0.083,0.41 -0.442,0.703 -0.86,0.703 h -3.871 l -1.352,2.77 c -0.152,0.312 -0.464,0.492 -0.789,0.492"
           style="fill:#ff0000;fill-opacity:1;fill-rule:nonzero;stroke:none"
           transform="scale(1.3333333)"
           clip-path="url(#clipPath1627)"
           id="path3237" />
        <path
           d="m 571.852,1498.207 c 0,0.836 -0.68,1.512 -1.516,1.512 -0.832,0 -1.508,-0.676 -1.508,-1.512 0,-0.832 0.676,-1.512 1.508,-1.512 0.836,0 1.516,0.68 1.516,1.512"
           style="fill:#ff0000;fill-opacity:1;fill-rule:nonzero;stroke:none"
           transform="scale(1.3333333)"
           clip-path="url(#clipPath1628)"
           id="path3238" />
      </g>
    </g>
  </g>
</svg>
