<?xml version="1.0" encoding="UTF-8" standalone="no"?>
<!-- Created with Inkscape (http://www.inkscape.org/) -->

<svg
   version="1.1"
   id="svg1"
   width="16.073334"
   height="18.198668"
   viewBox="0 0 16.073334 18.198666"
   sodipodi:docname="ux-revivo-02.pdf"
   inkscape:export-filename="..\Revivo-FrontEnd\src\assets\icon\cancel.svg"
   inkscape:export-xdpi="96"
   inkscape:export-ydpi="96"
   xmlns:inkscape="http://www.inkscape.org/namespaces/inkscape"
   xmlns:sodipodi="http://sodipodi.sourceforge.net/DTD/sodipodi-0.dtd"
   xmlns="http://www.w3.org/2000/svg"
   xmlns:svg="http://www.w3.org/2000/svg">
  <sodipodi:namedview
     id="namedview1"
     pagecolor="#ffffff"
     bordercolor="#000000"
     borderopacity="0.25"
     inkscape:showpageshadow="2"
     inkscape:pageopacity="0.0"
     inkscape:pagecheckerboard="0"
     inkscape:deskcolor="#d1d1d1"
     showguides="true"
     inkscape:zoom="0.49440065"
     inkscape:cx="1291.4627"
     inkscape:cy="2303.7996"
     inkscape:window-width="1920"
     inkscape:window-height="991"
     inkscape:window-x="-9"
     inkscape:window-y="-9"
     inkscape:window-maximized="1"
     inkscape:current-layer="g1"
     inkscape:export-bgcolor="#ffffff00" />
  <defs
     id="defs1">
    <clipPath
       clipPathUnits="userSpaceOnUse"
       id="clipPath1589">
      <path
         d="M 0,0 H 1920 V 3334 H 0 Z"
         id="path1589" />
    </clipPath>
    <clipPath
       clipPathUnits="userSpaceOnUse"
       id="clipPath1590">
      <path
         d="M 0,0 H 1920 V 3334 H 0 Z"
         id="path1590" />
    </clipPath>
    <clipPath
       clipPathUnits="userSpaceOnUse"
       id="clipPath1591">
      <path
         d="M 0,0 H 1920 V 3334 H 0 Z"
         id="path1591" />
    </clipPath>
    <clipPath
       clipPathUnits="userSpaceOnUse"
       id="clipPath1592">
      <path
         d="M 0,0 H 1920 V 3334 H 0 Z"
         id="path1592" />
    </clipPath>
    <clipPath
       clipPathUnits="userSpaceOnUse"
       id="clipPath1593">
      <path
         d="M 0,0 H 1920 V 3334 H 0 Z"
         id="path1593" />
    </clipPath>
    <clipPath
       clipPathUnits="userSpaceOnUse"
       id="clipPath1594">
      <path
         d="M 0,0 H 1920 V 3334 H 0 Z"
         id="path1594" />
    </clipPath>
  </defs>
  <g
     id="g1"
     inkscape:groupmode="layer"
     inkscape:label="1"
     transform="translate(-1183.0413,-1901.9733)">
    <g
       id="g4785">
      <g
         id="g4932">
        <path
           d="m 890.746,1437.961 c 0,-0.477 -0.391,-0.863 -0.867,-0.863 h -1.734 c -0.477,0 -0.864,0.386 -0.864,0.863 v 1.301 c 0,0.476 0.387,0.867 0.864,0.867 h 1.734 c 0.476,0 0.867,-0.391 0.867,-0.867 z"
           style="fill:#000070;fill-opacity:1;fill-rule:nonzero;stroke:none"
           transform="scale(1.3333333)"
           clip-path="url(#clipPath1589)"
           id="path3199" />
        <path
           d="m 890.746,1432.547 c 0,-0.477 -0.391,-0.867 -0.867,-0.867 h -1.734 c -0.477,0 -0.864,0.39 -0.864,0.867 v 1.301 c 0,0.476 0.387,0.863 0.864,0.863 h 1.734 c 0.476,0 0.867,-0.387 0.867,-0.863 z"
           style="fill:#000070;fill-opacity:1;fill-rule:nonzero;stroke:none"
           transform="scale(1.3333333)"
           clip-path="url(#clipPath1590)"
           id="path3200" />
        <path
           d="m 890.746,1427.348 c 0,-0.477 -0.391,-0.868 -0.867,-0.868 h -1.734 c -0.477,0 -0.864,0.391 -0.864,0.868 v 1.3 c 0,0.477 0.387,0.864 0.864,0.864 h 1.734 c 0.476,0 0.867,-0.387 0.867,-0.864 z"
           style="fill:#000070;fill-opacity:1;fill-rule:nonzero;stroke:none"
           transform="scale(1.3333333)"
           clip-path="url(#clipPath1591)"
           id="path3201" />
        <path
           d="m 891.969,1433.848 c 0,0.476 0.39,0.863 0.867,0.863 h 5.633 c 0.476,0 0.867,-0.387 0.867,-0.863 v -1.301 c 0,-0.477 -0.391,-0.867 -0.867,-0.867 h -5.633 c -0.477,0 -0.867,0.39 -0.867,0.867 z"
           style="fill:#000070;fill-opacity:1;fill-rule:nonzero;stroke:none"
           transform="scale(1.3333333)"
           clip-path="url(#clipPath1592)"
           id="path3202" />
        <path
           d="m 892.836,1426.48 c -0.477,0 -0.867,0.391 -0.867,0.868 v 1.3 c 0,0.477 0.39,0.868 0.867,0.868 h 5.633 c 0.476,0 0.867,-0.391 0.867,-0.868 v -1.3 c 0,-0.477 -0.391,-0.868 -0.867,-0.868 z"
           style="fill:#000070;fill-opacity:1;fill-rule:nonzero;stroke:none"
           transform="scale(1.3333333)"
           clip-path="url(#clipPath1593)"
           id="path3203" />
        <path
           d="m 891.969,1439.262 c 0,0.476 0.39,0.867 0.867,0.867 h 5.633 c 0.476,0 0.867,-0.391 0.867,-0.867 v -1.301 c 0,-0.477 -0.391,-0.863 -0.867,-0.863 h -5.633 c -0.477,0 -0.867,0.386 -0.867,0.863 z"
           style="fill:#000070;fill-opacity:1;fill-rule:nonzero;stroke:none"
           transform="scale(1.3333333)"
           clip-path="url(#clipPath1594)"
           id="path3204" />
      </g>
    </g>
  </g>
</svg>
